<svg xmlns="http://www.w3.org/2000/svg" width="1600" height="900" viewBox="0 0 1600 900" fill="none">
  <defs>
    <linearGradient id="bg" x1="0" y1="0" x2="1600" y2="900" gradientUnits="userSpaceOnUse">
      <stop offset="0" stop-color="#155971"/>
      <stop offset="1" stop-color="#15395a"/>
    </linearGradient>
    <radialGradient id="glow" cx="0" cy="0" r="1" gradientUnits="userSpaceOnUse" gradientTransform="translate(1260 190) rotate(120) scale(620 480)">
      <stop stop-color="#f1d27a" stop-opacity="0.34"/>
      <stop offset="1" stop-color="#f1d27a" stop-opacity="0"/>
    </radialGradient>
  </defs>
  <rect width="1600" height="900" rx="44" fill="url(#bg)"/>
  <rect x="48" y="48" width="1504" height="804" rx="34" stroke="rgba(255,255,255,0.22)"/>
  <circle cx="1260" cy="190" r="330" fill="url(#glow)"/>
  <path d="M0 640C170 610 250 690 390 670C570 645 650 530 865 548C1080 566 1170 730 1365 734C1460 736 1520 710 1600 680V900H0V640Z" fill="rgba(255,255,255,0.08)"/>
  <path d="M0 705C145 690 235 735 360 728C515 719 644 620 824 632C1010 644 1140 778 1300 790C1415 798 1510 775 1600 742" stroke="rgba(255,255,255,0.22)" stroke-width="4"/>
  <path d="M0 760C182 736 282 796 434 788C602 779 692 680 873 692C1062 704 1148 820 1318 834C1430 843 1506 822 1600 790" stroke="rgba(255,255,255,0.12)" stroke-width="3"/>
  <text x="120" y="150" fill="#EAFBFF" font-family="Georgia, 'Times New Roman', serif" font-size="32" letter-spacing="3.2">OCEAN FUND</text>
  <rect x="120" y="192" width="294" height="52" rx="26" fill="rgba(255,255,255,0.12)" stroke="rgba(255,255,255,0.18)"/>
  <text x="152" y="226" fill="#F7FCFF" font-family="Arial, Helvetica, sans-serif" font-size="24" font-weight="700" letter-spacing="1.8">BLUE ECONOMY</text>
  <text x="120" y="380" fill="#FFFFFF" font-family="Georgia, 'Times New Roman', serif" font-size="86" font-weight="700">Синяя экономика</text>
  <text x="120" y="478" fill="#FFFFFF" font-family="Georgia, 'Times New Roman', serif" font-size="86" font-weight="700">без hype</text>
  <text x="120" y="584" fill="#DDF6FF" font-family="Arial, Helvetica, sans-serif" font-size="30">From the ocean of Earth to the ocean of space</text>
  <circle cx="1382" cy="722" r="74" fill="rgba(255,255,255,0.10)" stroke="rgba(255,255,255,0.22)" stroke-width="2"/>
  <path d="M1342 735C1365 706 1398 689 1426 693C1454 697 1473 719 1476 743C1479 767 1467 791 1445 804C1418 820 1384 820 1360 806C1334 791 1323 763 1342 735Z" fill="rgba(255,255,255,0.85)" fill-opacity="0.18"/>
</svg>
