<svg xmlns="http://www.w3.org/2000/svg" width="1200" height="630" viewBox="0 0 1200 630"><defs><linearGradient id="g5" x1="0" x2="1" y1="0" y2="1"><stop offset="0%" stop-color="#0e2740"/><stop offset="100%" stop-color="#1f5078"/></linearGradient></defs><rect width="1200" height="630" fill="url(#g5)"/><rect x="130" y="140" width="190" height="70" rx="18" fill="#d8f2ff" opacity=".84"/><rect x="360" y="140" width="190" height="70" rx="18" fill="#8fd4ff" opacity=".72"/><rect x="590" y="140" width="190" height="70" rx="18" fill="#9fd7c9" opacity=".72"/><rect x="820" y="140" width="190" height="70" rx="18" fill="#ffe29a" opacity=".72"/><rect x="130" y="250" width="190" height="70" rx="18" fill="#8fd4ff" opacity=".72"/><rect x="360" y="250" width="190" height="70" rx="18" fill="#9fd7c9" opacity=".72"/><rect x="590" y="250" width="190" height="70" rx="18" fill="#ffe29a" opacity=".72"/><rect x="820" y="250" width="190" height="70" rx="18" fill="#d8f2ff" opacity=".84"/><path d="M180 430 C300 380 430 380 550 430 S790 480 920 430" stroke="#ffffff" stroke-width="10" fill="none" opacity=".6"/></svg>
