<svg xmlns="http://www.w3.org/2000/svg" width="1280" height="640" viewBox="0 0 1280 640" role="img" aria-label="Ocean expeditions atlas preview">
  <defs>
    <linearGradient id="bg" x1="0" y1="0" x2="1" y2="1">
      <stop offset="0%" stop-color="#061826" />
      <stop offset="55%" stop-color="#0b486b" />
      <stop offset="100%" stop-color="#3b82a6" />
    </linearGradient>
  </defs>
  <rect width="1280" height="640" fill="url(#bg)" />
  <circle cx="1040" cy="136" r="88" fill="#ffd166" fill-opacity="0.9" />
  <path d="M0 420 C170 340 300 350 430 420 S700 500 860 420 1110 345 1280 435 L1280 640 L0 640 Z" fill="#8ecae6" fill-opacity="0.2" />
  <path d="M220 320 L370 320 L370 360 L220 360 Z" fill="#ffffff" fill-opacity="0.14" />
  <path d="M390 300 L540 300 L540 360 L390 360 Z" fill="#ffffff" fill-opacity="0.16" />
  <path d="M560 275 L710 275 L710 360 L560 360 Z" fill="#ffffff" fill-opacity="0.18" />
  <path d="M730 245 L880 245 L880 360 L730 360 Z" fill="#ffffff" fill-opacity="0.2" />
  <path d="M900 210 L1050 210 L1050 360 L900 360 Z" fill="#ffffff" fill-opacity="0.22" />
  <path d="M170 408 C320 290 480 228 650 220 C820 212 980 260 1130 360" fill="none" stroke="#ffd166" stroke-width="10" stroke-linecap="round" stroke-opacity="0.86" />
  <circle cx="170" cy="408" r="12" fill="#ffd166" />
  <circle cx="650" cy="220" r="12" fill="#ffd166" />
  <circle cx="1130" cy="360" r="12" fill="#ffd166" />
  <path d="M132 458 C246 430 352 430 466 458" fill="none" stroke="#caf0f8" stroke-width="7" stroke-linecap="round" stroke-opacity="0.55" />
  <path d="M814 432 C928 404 1034 404 1148 432" fill="none" stroke="#caf0f8" stroke-width="7" stroke-linecap="round" stroke-opacity="0.55" />
</svg>
